<svg xmlns="http://www.w3.org/2000/svg" id="Layer_2" viewBox="0 0 59.43 68.7"><defs><style>.cls-1{fill:#0081c5}.cls-2{fill:#fff}.cls-3{fill:#fac965}.cls-4,.cls-5{fill:#050407;stroke:#fff;stroke-miterlimit:10}.cls-5{fill:#1a110f}</style></defs><g id="Layer_1-2"><g><g><path d="M9.84,37.86c-1.37,0-2.51-1.35-2.58-3.08L5.99,6.56c-.08-1.79,1.01-3.32,2.44-3.41L51.23,.5h.13c1.37,0,2.51,1.35,2.58,3.07l1.26,28.23c.08,1.79-1.01,3.32-2.44,3.41l-42.8,2.65h-.13Z" class="cls-1"/><path d="M51.36,1c1.09,0,2.02,1.17,2.08,2.6l1.26,28.23c.07,1.49-.84,2.82-1.97,2.89l-42.8,2.65s-.07,0-.1,0c-1.09,0-2.02-1.17-2.08-2.6L6.49,6.54c-.07-1.49,.84-2.82,1.97-2.89L51.27,1s.07,0,.1,0M51.36,0c-.05,0-.11,0-.16,0L8.4,2.65c-1.7,.1-3,1.86-2.91,3.93l1.26,28.23c.09,2,1.45,3.55,3.08,3.55,.05,0,.11,0,.16,0l42.8-2.65c1.7-.11,3-1.86,2.91-3.93l-1.26-28.23C54.36,1.55,52.99,0,51.36,0h0Z" class="cls-2"/></g><path d="M46.57,21.91l-6.57,.34c-1.46,.08-2.71-1.01-2.79-2.42l-.14-2.59c-.08-1.41,1.05-2.62,2.51-2.69l6.57-.34c1.46-.08,2.71,1.01,2.79,2.42l.14,2.59c.08,1.41-1.05,2.62-2.51,2.69Z" class="cls-3"/><rect width="56" height="38" x="1.72" y="28.16" class="cls-4" rx="4" ry="4" transform="translate(4.22 -2.41) rotate(5)"/><path d="M47.63,45.08h10v8h-10c-1.1,0-2-.9-2-2v-4c0-1.1,.9-2,2-2Z" class="cls-5" transform="translate(4.47 -4.31) rotate(5)"/></g></g></svg>