<svg xmlns="http://www.w3.org/2000/svg" id="Layer_2" viewBox="0 0 322.52 68.7"><defs><style>.cls-1{fill:#0081c5}.cls-2{fill:#fff}.cls-3{fill:#fac965}.cls-4,.cls-5{fill:#050407;stroke:#fff;stroke-miterlimit:10}.cls-5{fill:#1a110f}</style></defs><g id="Layer_1-2"><g><g><g><path d="M9.84,37.86c-1.37,0-2.51-1.35-2.58-3.08L5.99,6.56c-.08-1.79,1.01-3.32,2.44-3.41L51.23,.5h.13c1.37,0,2.51,1.35,2.58,3.07l1.26,28.23c.08,1.79-1.01,3.32-2.44,3.41l-42.8,2.65h-.13Z" class="cls-1"/><path d="M51.36,1c1.09,0,2.02,1.17,2.08,2.6l1.26,28.23c.07,1.49-.84,2.82-1.97,2.89l-42.8,2.65s-.07,0-.1,0c-1.09,0-2.02-1.17-2.08-2.6L6.49,6.54c-.07-1.49,.84-2.82,1.97-2.89L51.27,1s.07,0,.1,0M51.36,0C51.31,0,51.26,0,51.2,0L8.4,2.65c-1.7,.11-3,1.86-2.91,3.93l1.26,28.23c.09,2,1.45,3.55,3.08,3.55,.05,0,.11,0,.16,0l42.8-2.65c1.7-.11,3-1.86,2.91-3.93l-1.26-28.23C54.36,1.55,52.99,0,51.36,0h0Z" class="cls-2"/></g><path d="M46.57,21.91l-6.57,.34c-1.46,.08-2.71-1.01-2.79-2.42l-.14-2.59c-.08-1.41,1.05-2.62,2.51-2.69l6.57-.34c1.46-.08,2.71,1.01,2.79,2.42l.14,2.59c.08,1.41-1.05,2.62-2.51,2.69Z" class="cls-3"/><rect width="56" height="38" x="1.72" y="28.16" class="cls-4" rx="4" ry="4" transform="translate(4.22 -2.41) rotate(5)"/><path d="M47.63,45.08h10v8h-10c-1.1,0-2-.9-2-2v-4c0-1.1,.9-2,2-2Z" class="cls-5" transform="translate(4.47 -4.31) rotate(5)"/></g><g><path d="M90.87,18.85h21.19v5.58h-14.42v7.62h13.02v5.58h-13.02v13.22h-6.77V18.85Z"/><path d="M129.92,51.28c-8.53,0-14.98-6.02-14.98-16.44s6.45-16.44,14.98-16.44,14.98,5.97,14.98,16.44-6.5,16.44-14.98,16.44Zm0-26.89c-4.92,0-8.12,3.67-8.12,10.45s3.2,10.45,8.12,10.45,8.12-3.67,8.12-10.45-3.22-10.45-8.12-10.45Z"/><path d="M160.7,24.06c-3.31,0-5.14,1.52-5.14,3.58-.05,2.3,2.28,3.33,5.06,3.97l2.88,.69c5.56,1.25,9.58,4.08,9.59,9.41-.02,5.86-4.61,9.59-12.42,9.59s-12.72-3.58-12.89-10.5h6.55c.22,3.2,2.75,4.83,6.27,4.83s5.66-1.59,5.67-3.94c-.02-2.16-1.95-3.16-5.44-4l-3.48-.88c-5.41-1.3-8.73-4-8.72-8.72-.03-5.81,5.11-9.69,12.12-9.69s11.81,3.94,11.91,9.64h-6.48c-.25-2.52-2.23-3.98-5.47-3.98Z"/><path d="M188.41,24.06c-3.31,0-5.14,1.52-5.14,3.58-.05,2.3,2.28,3.33,5.06,3.97l2.88,.69c5.56,1.25,9.58,4.08,9.59,9.41-.02,5.86-4.61,9.59-12.42,9.59s-12.72-3.58-12.89-10.5h6.55c.22,3.2,2.75,4.83,6.27,4.83s5.66-1.59,5.67-3.94c-.02-2.16-1.95-3.16-5.44-4l-3.48-.88c-5.41-1.3-8.73-4-8.72-8.72-.03-5.81,5.11-9.69,12.12-9.69s11.81,3.94,11.91,9.64h-6.48c-.25-2.52-2.23-3.98-5.47-3.98Z"/><path d="M205.7,18.85h10.8c6.25,0,9.39,3.56,9.39,8.38,0,4-2.22,6.22-5.08,6.98v.25c3.11,.22,6.33,3.14,6.33,8s-3.17,8.39-10.05,8.39h-11.39V18.85Zm11.06,14.45c3.78,0,6.33-2.56,6.33-6.08s-2.22-5.75-6.59-5.75h-7.88v11.83h8.14Zm.33,14.92c4.94,0,7.25-2.45,7.25-5.77,0-3.66-2.83-6.56-7.12-6.56h-8.59v12.33h8.47Z"/><path d="M232.98,20.72c0-1.09,.94-2,2.08-2s2.09,.91,2.09,2-.95,2-2.09,2-2.08-.91-2.08-2Zm.66,6.12h2.8v24h-2.8V26.85Z"/><path d="M246.59,50.85h-2.78V18.85h2.78V50.85Z"/><path d="M256.71,50.85h-2.78V18.85h2.78V50.85Z"/><path d="M263.43,20.72c0-1.09,.94-2,2.08-2s2.09,.91,2.09,2-.95,2-2.09,2-2.08-.91-2.08-2Zm.66,6.12h2.8v24h-2.8V26.85Z"/><path d="M277.04,50.85h-2.78V26.85h2.7v3.77h.25c1.12-2.45,3.55-4.08,7.06-4.08,4.84,0,8.14,3.08,8.14,8.77v15.55h-2.78v-15.38c0-3.92-2.38-6.39-6.06-6.39s-6.53,2.58-6.53,6.77v15Z"/><path d="M299.54,55.53l2.28-1.5c1.02,1.83,2.98,3.81,7.09,3.81s7.11-2.08,7.11-6.55v-5.41h-.25c-.95,2.2-3.06,4.7-7.38,4.7-5.75,0-9.88-4.45-9.88-11.81s3.98-12.27,9.92-12.27c4.41,0,6.39,2.75,7.38,4.91h.28v-4.58h2.72v24.62c0,6.09-4.22,8.88-9.91,8.88-4.91,0-7.97-2.06-9.38-4.81Zm16.53-16.8c0-5.62-2.64-9.69-7.34-9.69s-7.41,4.28-7.41,9.69,2.64,9.31,7.41,9.31,7.34-3.52,7.34-9.31Z"/></g></g></g></svg>