<svg xmlns="http://www.w3.org/2000/svg" width="35px" height="35px" viewBox="0 0 256 256">

<path d="m173.63 154.53c-1.43-13 22.93-54.17 2.06-81.84-2.16-3 .84-9.3 2.85-13.55 4.88-10.28 3.84-18.68-5.91-23.7s-17.28-.4-23 8c-2.7 4-7.08 10-10.18 9.69-34.3-2.19-55.24 40.6-66.81 46.47-13.68 6.94-45 11.57-50.29 30.59-6.89 24.58 14.9 49.08 59.54 73.38s77 29.26 93.7 10c12.95-14.87-.27-43.73-1.96-59.04z" fill="#191919"/>

<path d="m147 233.36a74 74 0 0 1 -8.73-.54c-16.63-2-36.32-9.26-60.2-22.26s-40.69-25.56-51.42-38.49c-12.08-14.54-16.12-29.37-12-44.07 5.05-18 26.21-25.34 41.67-30.67a113.86 113.86 0 0 0 12.68-4.9c2-1 6.73-6.57 10.52-11 12.66-14.87 31.57-37.13 58.72-36.43a40.54 40.54 0 0 0 4.76-6.09c8.88-13 21-16.88 33.26-10.58 6.22 3.2 19.59 12.94 9.48 34.25a44 44 0 0 0 -2.71 6.64c15.75 22.42 7.48 50.7 2 69.53-1.65 5.63-3.7 12.63-3.44 14.9a115.69 115.69 0 0 0 2.86 13.35c4.21 16.79 9.45 37.69-2.81 51.78-8.41 9.71-20.04 14.58-34.64 14.58zm-10-172.36c-19.09 0-34.14 17.7-45.23 30.75-5.91 7-10.58 12.45-15.48 14.93a123.26 123.26 0 0 1 -14.72 5.75c-12.78 4.41-28.69 9.91-31.48 19.87-5.47 19.51 13.26 41.11 55.67 64.2s70.58 27 83.83 11.81c6.78-7.8 2.67-24.2-.64-37.39a124.48 124.48 0 0 1 -3.25-15.52c-.6-5.46 1.42-12.39 4-21.15 5-17.11 11.86-40.54-.36-56.75l-.09-.12c-4.94-6.83-.7-15.76 2.1-21.67 4.56-9.61.57-11.66-2.34-13.16-2.51-1.29-6.71-3.45-12.72 5.36-4.55 6.68-10 13.75-17.38 13.16-.67-.07-1.31-.07-1.91-.07z" fill="#191919"/>

<g>

<path d="m173.63 154.53c-1.43-13 22.93-54.17 2.06-81.84-2.16-3 .84-9.3 2.85-13.55 4.88-10.28 3.84-18.68-5.91-23.7s-17.28-.4-23 8c-2.7 4-7.08 10-10.18 9.69-34.3-2.19-55.24 40.6-66.81 46.47-13.68 6.94-45 11.57-50.29 30.59-6.89 24.58 14.9 49.08 59.54 73.38s77 29.26 93.7 10c12.95-14.87-.27-43.73-1.96-59.04z" fill="#e83a2a"/>

<path d="m82.44 151.11c3.18.21 43.63 22.36 46.41 24.56s-4.38 11.41-16.7 12.32-29.94-6.44-33.48-12.51.59-24.58 3.77-24.37z" fill="#d32920"/>

<path d="m126.58 174.48c-1.94.11-15.11 13.77-29 6.55-19.24-10-11.67-26.74-13-29s-38.22-15.44-42.44-8.42c-3.87 6.45 17.21 29.31 47.75 45.12 31.09 16.09 59.41 21.78 63.1 15.22 4.37-7.86-24.48-29.58-26.41-29.47z" fill="#ffffff"/>

</g>

<g>

<path d="m19.84 78.69c4.09-15.58 20.88-30.66 36-34.47 3.76-.94 1.05-9.93-3.19-9-16.58 3.7-34.39 17.59-42.57 39.63-2.08 5.5 8.99 6.79 9.76 3.84z" fill="#191919"/>

</g>

<g>

<path d="m46.74 76.74c6.74-9.86 15.69-12.12 24.19-13 3.76-.38 3.76-10-.17-9.69-10.38.83-22.53 2.86-32.42 16.51-3.34 4.57 6.48 9 8.4 6.18z" fill="#191919"/>

</g>

<g>

<path d="m221.59 117.38c12.58 10.69 19 32.89 15.84 48.58-.8 3.89 8.33 6.8 9.34 2.46 4-17-1-41.5-17.68-58.84-4.17-4.33-9.88 5.78-7.5 7.8z" fill="#191919"/>

</g>

<g>

<path d="m211.87 144.34c5.49 10.94 3.07 20.08-.38 28.14-1.52 3.56 7.18 7.85 8.85 4.18 4.74-10.43 8.36-21.25.84-37.33-2.44-5.24-10.87 1.89-9.31 5.01z" fill="#191919"/>

</g>

</svg>